<svg width="285" height="63" viewBox="0 0 285 63" fill="none" xmlns="http://www.w3.org/2000/svg">
<path d="M-2 36.7616C48.3765 17.8704 119.934 28.7405 139.773 35.4812C142.271 36.3298 144.099 38.2977 145.204 40.6927V40.6927C146.054 42.5343 146.424 44.5609 146.28 46.584L146.225 47.3431C146.077 49.4189 145.446 51.4313 144.381 53.2195L144.236 53.4631C141.919 57.3543 137.725 59.7384 133.197 59.7384H132.811C129.725 59.7384 126.76 58.5389 124.542 56.3933V56.3933C121.702 53.6462 120.411 49.6682 121.098 45.7772L121.177 45.3275C121.391 44.1155 121.78 42.9409 122.33 41.8402L122.618 41.2642C123.204 40.0925 123.931 38.997 124.784 38.0024L125.365 37.3239C126.117 36.4472 127.006 35.6992 127.999 35.1096V35.1096C129.636 34.1375 131.505 33.6245 133.409 33.6245H136.5L173.414 35.8086C192.384 36.9311 211.419 35.4817 230 31.5V31.5L246 25.75L251.015 23.9477C258.261 21.3437 264.893 17.2769 270.5 12V12L282 3M282 3H270.5M282 3V16" stroke="black" stroke-width="5" stroke-linejoin="round"/>
</svg>
